<?xml version="1.0" encoding="UTF-8"?>
<svg id="Layer_1" data-name="Layer 1" xmlns="http://www.w3.org/2000/svg" xmlns:xlink="http://www.w3.org/1999/xlink" version="1.1" viewBox="0 0 521 226">
  <defs>
    <style>
      .cls-1 {
        clip-path: url(#clippath);
      }

      .cls-2 {
        fill: none;
      }

      .cls-2, .cls-3, .cls-4 {
        stroke-width: 0px;
      }

      .cls-3 {
        fill: #e5007e;
      }

      .cls-4 {
        fill: #009fe3;
      }

      .cls-5 {
        isolation: isolate;
      }
    </style>
    <clipPath id="clippath">
      <rect class="cls-2" x="257.9" y="-155.7" width="75.8" height="446.7" transform="translate(211.2 359) rotate(-86.7)"/>
    </clipPath>
  </defs>
  <g id="Rocketship_Tail_Large" data-name="Rocketship Tail Large">
    <g class="cls-1">
      <image id="Layer_1-2" data-name="Layer 1-2" class="cls-5" width="3655" height="620" transform="translate(74.9 17) rotate(3.3) scale(.1)" xlink:href="screwfast_logo_dark-1.png"/>
    </g>
  </g>
  <g>
    <path class="cls-4" d="M66.7,90.8l.9,3.6-4.6-.6-.4,3.5-5.6-2.4,3,6.6h-5c0-.1-1.8,3-1.8,3-2-2.9-4.2-5.9-8.1-5.7-6.2.4-9.1,5.7-12.1,10.7-5.1,8.4-12.2,27-11.8,36.8.2,4.8,1.9,12,7.9,11.3,3.7-.4,7.4-3.7,9.9-6.5l-.7,2.7,3.1-1.2-1.5,5.3,6.1-4.6-1.1,5.7,2.4-.9-.6,3.9,3.9-1.6c-.6,1.6-1.4,3.2-2.1,4.7-6.5,6.5-14.2,12.6-23.4,13.7-4.1.5-8.3,0-12.2-.9C3.2,175.5.4,166,0,156.7c0-2.2,0-4.4,0-6.6,1.5-22,8.2-38.5,20.5-56.7,3.7-5.5,12.6-12.3,18.6-14.4,2.8-1,5.8-1.8,8.7-1.9,9.8-.6,17.2,4.7,22,13.2l-3.2.7h0Z"/>
    <path class="cls-4" d="M105.7,136.2c-4.1,16.7-12.2,32.9-30.3,35.2-1.2.2-2.3.2-3.5.2-10.9,0-15.8-8.4-16.2-19.2-.2-5.6.8-11.3,2.5-16.7,5.3-17.5,14.1-34.5,32.7-35.9l-1.3,3.5,2.3,1.2-3.1,3.2,7.5,2.8-.2-4.9,3.2,1.2.2-5.4c5.3,4.7,7.7,11.5,8,18.9.2,5.3-.6,10.6-1.9,15.9h0ZM87.8,117.6c-5.3.5-9.9,9.8-11.7,14.4-1.8,4.6-3.3,10.8-3.1,15.7.1,3.1.9,6.8,4.6,6.4,9.1-1,14-23.5,13.7-31.2,0-2.3-.7-5.5-3.4-5.2h0Z"/>
    <path class="cls-4" d="M175.4,95.6c-3.2,9.3-5.7,19.2-8,29-2.8,11.8-5.2,23.8-7.1,35.8l-2.7-1.9-2.7,5.2-1.6-6-3.2,3.4-.6-5.6-3.8,5.5-1.3.8,4.4-22.7h-.3c-4.8,6.7-8.4,14.3-12.9,21.4l-2.1-2.9-2.9,2.9c-1.4-5.9-2.4-12.1-3.1-18.2h-.3c-2.6,7.5-4.5,15.3-6.5,22.9l-1.9-2.8-3.5,4.5-1.4-8.1-3.5,7.2-1-2.5-5.2,3.7c2.2-11.9,5.1-23.8,8.1-35.4,2.9-11.2,5.9-22.3,9.5-33.2l2.4,3.4,2.8-4.8,2.3,9.8,2.1-8.5,1.4,2.3,2.9-3.2c.9,8.4,2.4,20,4.6,27.9,5.8-10.6,12.8-21.4,19.8-30.7l1.8,3.4,3.6-5,.8,7.7,3.7-5.3,1.3,2.3,4-2.3h0Z"/>
    <path class="cls-4" d="M232.4,91.2c-3,8.9-5.2,18.4-7.3,27.7-2.5,11.3-4.7,22.7-6.4,34.2l-2.5-1.8-2.5,4.9-1.5-5.7-2.9,3.2-.6-5.3-3.4,5.3-1.2.8,4-21.7h-.3c-4.4,6.4-7.7,13.6-11.7,20.4l-2-2.7-2.7,2.8c-1.3-5.6-2.2-11.6-2.9-17.4h-.3c-2.3,7.2-4.1,14.6-5.9,21.9l-1.7-2.7-3.1,4.3-1.3-7.7-3.2,6.9-1-2.4-4.8,3.5c1.9-11.3,4.6-22.7,7.3-33.8,2.6-10.7,5.4-21.3,8.6-31.7l2.2,3.3,2.5-4.6,2.2,9.3,1.9-8.1,1.3,2.2,2.6-3.1c.9,8,2.3,19.1,4.2,26.7,5.2-10.1,11.7-20.5,18-29.3l1.6,3.2,3.3-4.7.7,7.3,3.4-5,1.2,2.2,3.7-2.1h0Z"/>
    <path class="cls-4" d="M269.9,93.5l-6.9,2,4.3,2.6-3.1,2.1,1.5,3.5c-1.8-.1-3.7,0-5.6,0-3,.3-6,.7-9,1.5l-3,7.3,12.3-1.3,1,2.1-3.7,3.1,3.5,2.3-2.7,2.5,2.2,2-.9,2.3-14.8,1.4-1.6,8.6c2.2.3,4.5.1,6.7-.1,2.9-.3,5.9-.9,8.7-1.6l-2.7,5.1,2,1.2-4.7,3,5.2,1.1-1.5,3.4c-3.6,1.6-7.6,2.3-11.5,2.8-4.2.5-8.6.9-12.9.5l2.6-5.1-3.2-1.1.2-4.4-4.5,3c1.6-15.2,5.9-30.5,11.1-44.4l1.9,2,2.9-2.5-1.5-4.7,3.7-.7-1.2-2.6c4.7-1.2,9.4-1.7,14.1-2.1,3.6-.3,7.1-.4,10.7-.4l-2.5,2.8,3.2,2.8h0Z"/>
    <path class="cls-4" d="M293.7,124.3l6.9,17.6-3.6-1.3-.2,5-4.5-6.2-.3,5.3-3.4-2.5-.9,3.8-7-16.5-1,.4c-1.7,5.8-2.6,11.8-3.7,17.7l-2.5-3.1-3,5.7-1.3-5.9-1.8,1.9-.8-5.6-2.8,6.8-1.3-1.8c1.1-8.7,2.9-17.3,4.8-25.9,1.8-8.4,3.8-16.9,6.5-25l2.5,2.9.7-3.1h2.3c0,0-.6-4.3-.6-4.3l2.1-.9-.3-2.9c4.1-1.3,8.2-2.3,12.4-2.6,7.7-.6,14.1,4.9,14.5,14.9.4,10.4-6.3,20.4-13.4,25.2h0ZM289.2,101.1c-1.1,0-2.2.5-3.1,1.3l-3.1,10.9c3.7-.4,9.7-4.4,9.5-9.7-.1-2.6-1.6-2.6-3.3-2.5h0Z"/>
    <path class="cls-4" d="M336.5,86.1l1.1,4.3-4.9-1.9,1.6,4.9-2.4.3v3.6c-.8-.7-1.9-1.1-2.9-1-7,.6-10.6,16.2-10.3,23.5.1,3,.6,6.3,3.5,6,1.9-.2,4.3-1.7,6.1-2.8l-1.4,3.9,2.7.4-3.8,4,4,.5-1.2,2.2,2,2.3c-3.1,3-6.8,5.2-10.7,5.6-9.4,1.2-13.2-7.7-13.6-18.4-.4-9.9,2.1-22.5,7.2-30.3,3.9-6.1,9.6-12,15.9-12.5,3.6-.3,6.8,1.3,9.5,4.1l-2.3,1.3h0Z"/>
    <path class="cls-4" d="M369.3,85.5l-5.9,1.8,3.7,2.4-2.6,1.9,1.3,3.2c-1.5-.1-3.2,0-4.7,0-2.5.2-5.1.6-7.6,1.3l-2.5,6.7,10.4-1.1.9,2-3.1,2.8,3,2.1-2.3,2.3,1.8,1.9-.8,2.1-12.5,1.1-1.3,7.9c1.9.3,3.8.1,5.7,0,2.4-.3,5-.7,7.4-1.4l-2.3,4.7,1.7,1.1-3.9,2.7,4.4,1.1-1.2,3.1c-3.1,1.4-6.4,2-9.7,2.4-3.5.4-7.2.7-10.9.3l2.2-4.6-2.7-1v-4c.1,0-3.7,2.7-3.7,2.7,1.3-14,4.9-27.9,9.2-40.7l1.6,1.8,2.4-2.3-1.3-4.3,3.1-.6-1-2.4c4-1.1,8-1.5,11.9-1.8,3-.2,6-.4,9-.3l-2.1,2.6,2.7,2.6h0Z"/>
  </g>
  <g>
    <path class="cls-3" d="M408.5,77.6c-.4,8.1-1.7,16.3-3.7,24.1-.5,1.8-1,3.5-1.6,5.3-.9,3.2-2.2,5.9-3.4,8.8,2.3,5.1,4.6,10,6.9,14.9l-2.1.7-2.2-1.8c.1,1.3.4,2.8.4,4.2,0,.8,0,1.8,0,2.6l-3-3-.2,2.8-1.5-1.3v2.9s-5.5-10.1-5.5-10.1c-3,3.2-6.3,5.5-10.1,6-2.5.3-5.2-.2-7.6-1.1-5.2-2-6.6-8.9-6.9-15.4-.1-2.5,0-5,.2-7.5,1.2-16.8,5.4-30.3,12.5-44.1,1.9-3.6,6.8-7.6,10-8.1l-.5,2,2.9,1-1.8,2.6c1.9-.3,4.1-.2,5.9.6l-.8-2.7,2.6-.2-2.2-2.6,2.2-1.6c6.4,1.3,9,6.6,9.3,15.1,0,1.9,0,3.8,0,5.7h0ZM394.5,72.8c-.3-.2-1-.3-1.4-.3-3.2.2-5.5,5.3-6.6,8.9-1.7,5.2-5.5,18.4-5.9,23.8-.1,1.8-.3,3.9-.2,5.7.1,3.4,1,5.9,3.9,5.6.7,0,1.3-.3,1.9-.9-1-2.2-2-4.4-3.1-6.6l.6-3.3,3.1,2.3-.8-3.9.9-.2-.5-2.4,2.3.8-2.2-5.2,2.4.5.5-3c1,1.8,2,3.6,2.9,5.5,1.3-4.8,4.9-16.8,4.7-21.5,0-1.9-.8-4.9-2.2-5.7h0Z"/>
    <path class="cls-3" d="M444.3,76.1c-3.5,12.4-6.1,25.9-8.6,39-2,10.1-5.1,12.8-12.4,13.7-2.9.4-8.4.8-11.2-.2l1.3-1.7-.6-1.2,1.5-1.7-.7-2.1-2.4,1.5v-3.2l-2.7,1.1c.9-12.9,5.3-33,9-44.8l1.6-.7.8,7.5,2.6-5.8,1,1.9,2.2-4.3.3,3.7,2.5-1.6c-3.2,10-7.7,25.9-8.6,36.7.4,1.2,1.6,1.2,2.4,1.1.9-.1,2.3-.5,2.8-1.8l.7-2.6c.7-2.9,1.3-5.8,2-8.7,2-8.6,3.9-17.5,6.5-25.8l.8.9.7,2.9,2.1-3.6.3,6.4,2.7-6.8,1.1,2.5,2-2.2h0Z"/>
    <path class="cls-3" d="M469.7,77.5l-4.9,1.6,3.1,2.2-2.1,1.7,1.1,3c-1.3-.1-2.6-.1-3.9,0-2.1.2-4.2.5-6.3,1.2l-2.1,6.1,8.6-.9.7,1.8-2.6,2.5,2.5,2-1.9,2.1,1.5,1.7-.6,1.9-10.4.9-1.1,7.2c1.6.3,3.2.2,4.7,0,2-.2,4.1-.6,6.1-1.2l-1.9,4.2,1.4,1-3.3,2.4,3.7,1-1,2.9c-2.6,1.3-5.3,1.8-8.1,2.1-2.9.4-6,.6-9,.2l1.8-4.2-2.2-.9v-3.7c0,0-3.1,2.4-3.1,2.4,1-12.7,4-25.4,7.5-37l1.3,1.7,2-2.1-1.1-4,2.6-.5-.9-2.2c3.3-.9,6.6-1.4,9.9-1.6,2.5-.2,5-.3,7.5-.2l-1.8,2.3,2.2,2.4h0Z"/>
    <path class="cls-3" d="M490.3,74.8l.2,2.5-3.2-.8,2.5,5.5-1.7.3.9,2.9-.9.5c-1.2-1.5-2.9-3.3-4.6-3.2-1.4.1-3.2,1.7-3.1,4,0,2.2,1.6,4,2.8,5.2,3,3.3,5,8,5.2,13.5.4,9.5-5.5,16.7-11.6,17.5-4.6.6-8.5-2.7-11.6-7.4l2-1.3-.6-2.5,3.1,1.3-2-5,2.1.5.4-3.3c1.3,1.4,4.3,4.8,5.9,4.7,1.3-.1,2.3-2.9,2.2-4.6-.2-3.7-4.2-7.9-5.9-10-1.7-2-2.5-4.7-2.6-7.9-.2-5,1.5-11.8,4.6-14.3,2.4-1.9,5-3.5,7.7-3.7,3.4-.3,6.7,1.6,9.5,4.2l-1.4,1.4h0Z"/>
    <path class="cls-3" d="M520.9,73.7l-3.5,2.9,2.2,2.4-1.6,2.1.7,2.1-8.2.7c-3,10.7-4.7,22.9-6.5,34.2l-1.4-1.6-2,3.8-1-4.9-1.7,2.5-.9-2.2-2.1,3.6-.7-.8c2-11.3,3.7-22.7,6.2-33.6l-7.7.7,1.5-2.9-1.2-1.7,3-2-1-2.4,3.4-1.5-3.4-1.9.3-1.9,24.7-1.9-1.3,2.8,2.1,1.7h0Z"/>
  </g>
</svg>