<?xml version="1.0" encoding="UTF-8"?>
<svg version="1.1" xmlns="http://www.w3.org/2000/svg" width="261" height="261">
<path d="M0 0 C4.58312767 2.58321741 8.82327061 5.75923263 12 10 C12.60060154 12.82688801 12.82616865 14.80398415 12.77636719 17.61572266 C12.79213806 18.72464622 12.79213806 18.72464622 12.80822754 19.85597229 C12.83455756 22.29287232 12.81715941 24.72713703 12.796875 27.1640625 C12.80092469 28.87877903 12.80675439 30.59349218 12.81427002 32.30819702 C12.82311202 35.90794567 12.81029472 39.50680081 12.78222656 43.10644531 C12.74839553 47.66145108 12.76804291 52.21432718 12.80288887 56.76925564 C13.03263138 92.15791461 13.03263138 92.15791461 6.82199097 106.99453735 C5.5568894 110.08108459 4.50517788 113.23809056 3.42523193 116.39320374 C0.9818676 123.39842487 -1.86986604 130.21345258 -5 136.9375 C-5.32613281 137.64052246 -5.65226563 138.34354492 -5.98828125 139.06787109 C-7.54792602 142.32663479 -9.1719558 145.36189405 -11.2734375 148.3046875 C-13.29520014 151.1982883 -14.88902987 153.64833906 -16 157 C-15.3025367 160.91826945 -13.46854763 163.8297053 -11.265625 167.10791016 C-9.19941358 170.19686434 -7.25884278 173.3614758 -5.31958008 176.53125 C-4.25159911 178.26941498 -3.16352039 179.99542912 -2.0534668 181.70703125 C1.71090348 187.7157173 3.75389225 193.0309877 2.66918945 200.18041992 C2 202 2 202 -0.625 203.25 C-4.19034509 204.04229891 -7.35924688 204.14563012 -11 204 C-10.98839844 204.69867188 -10.97679687 205.39734375 -10.96484375 206.1171875 C-10.95582031 207.02726563 -10.94679687 207.93734375 -10.9375 208.875 C-10.92009766 210.23238281 -10.92009766 210.23238281 -10.90234375 211.6171875 C-11 214 -11 214 -12 216 C-16.14961521 216.72800267 -19.98605096 217.03475091 -24.1875 216.875 C-27.9519675 216.67915017 -27.9519675 216.67915017 -30.5 218.5625 C-33.44248774 220.25443045 -35.52497914 220.36333408 -38.86523438 219.87133789 C-43.38019392 218.02848672 -45.53874171 213.43345897 -48 209.4375 C-48.58394531 208.53580078 -49.16789063 207.63410156 -49.76953125 206.70507812 C-51.20340655 204.48374671 -52.61168124 202.24997906 -54 200 C-59.08589845 201.62990217 -63.91563463 203.64310421 -68.8046875 205.78125 C-86.16335932 212.4021615 -107.06971411 211.31429269 -124 204 C-131.59636468 200.15914145 -136.0560085 193.20911575 -138.8125 185.3125 C-147.43698171 157.55734978 -139.26024502 122.47527932 -130 96 C-129.69690918 95.13294434 -129.39381836 94.26588867 -129.08154297 93.37255859 C-124.85619263 81.47412671 -119.90845874 70.15387349 -114 59 C-113.67 58.34 -113.34 57.68 -113 57 C-114.65 57 -116.3 57 -118 57 C-117.95875 58.11375 -117.9175 59.2275 -117.875 60.375 C-118 64 -118 64 -120 66 C-122.05859375 66.2734375 -122.05859375 66.2734375 -124.4375 66.375 C-126.85289771 66.53647662 -126.85289771 66.53647662 -129 67 C-129.495 67.66 -129.99 68.32 -130.5 69 C-132.39427274 71.52569699 -133.31347097 71.4908179 -136.375 71.9375 C-140.50157935 72.21171354 -142.77395845 71.76517847 -146 69 C-146.639375 68.13375 -147.27875 67.2675 -147.9375 66.375 C-149.84155271 63.84215147 -149.84155271 63.84215147 -152.6875 62.8125 C-158.02281651 63.11449905 -161.11738138 65.4315091 -165 69 C-182.72286249 89.41857296 -199.43720572 124.11402087 -199.23046875 151.52734375 C-198.88933177 155.18733877 -197.69262233 157.75016513 -196 161 C-195.67 161.66 -195.34 162.32 -195 163 C-187.84440224 163 -184.13931276 160.31658658 -178.61328125 155.91015625 C-176.11758919 154.08595084 -173.90859807 153.00097699 -171 152 C-171 152.66 -171 153.32 -171 154 C-169.88625 154.185625 -169.88625 154.185625 -168.75 154.375 C-166 155 -166 155 -164 156.125 C-161.35022223 157.28427778 -159.73062678 156.75850744 -157 156 C-157 156.66 -157 157.32 -157 158 C-155.35 158.33 -153.7 158.66 -152 159 C-151.87882812 159.67546875 -151.75765625 160.3509375 -151.6328125 161.046875 C-151.46523437 161.93890625 -151.29765625 162.8309375 -151.125 163.75 C-150.96257812 164.63171875 -150.80015625 165.5134375 -150.6328125 166.421875 C-150.00610313 168.97513539 -149.53296596 170.85963243 -148 173 C-145.44480079 173.81171228 -145.44480079 173.81171228 -143 174 C-142.45178263 180.51769543 -142.43569033 186.04286976 -146.0078125 191.68359375 C-150.57288389 196.99160813 -156.28947369 201.00836625 -162 205 C-162.55816406 205.3913916 -163.11632812 205.7827832 -163.69140625 206.18603516 C-181.78188924 218.62596668 -201.97801889 222.03858984 -223.359375 218.43359375 C-232.90309364 216.31411309 -240.8380625 212.51613291 -247.29736328 205.02346802 C-250.90953067 198.60913873 -250.13924376 190.97585007 -250.0625 183.80859375 C-250.06790453 182.01806296 -250.07568151 180.22753793 -250.08569336 178.43702698 C-250.09746148 174.6834425 -250.08046619 170.93138456 -250.04296875 167.17797852 C-249.99787045 162.44003929 -250.02407621 157.70574083 -250.07049847 152.96793365 C-250.2426299 132.28313009 -249.73 114.12401711 -241 95 C-240.46079758 93.71242013 -239.92569383 92.42311086 -239.39599609 91.1315918 C-238.08721152 88.07001105 -236.68191407 85.09951384 -235.1875 82.125 C-234.68105957 81.09528076 -234.17461914 80.06556152 -233.65283203 79.00463867 C-217.34943649 46.40038153 -196.47492151 18.12739195 -160.78515625 6.1640625 C-145.31761331 1.40727427 -130.49112524 3.23860938 -116.1640625 10.421875 C-107.78535792 15.10187215 -102.43029577 21.24243461 -97 29 C-96.34 29.33 -95.68 29.66 -95 30 C-94.74992188 29.27296875 -94.49984375 28.5459375 -94.2421875 27.796875 C-87.84336168 13.38945585 -71.03659999 4.48987022 -57 -1 C-53.96929782 -1.89798583 -51.12737747 -2.50620356 -48 -3 C-48 -2.34 -48 -1.68 -48 -1 C-46.02 -0.505 -46.02 -0.505 -44 0 C-43.67 1.65 -43.34 3.3 -43 5 C-42.05125 5.103125 -41.1025 5.20625 -40.125 5.3125 C-37 6 -37 6 -35 9 C-34.82726562 8.40832031 -34.65453125 7.81664062 -34.4765625 7.20703125 C-32.70115228 2.21470801 -31.00111855 -0.53344305 -26.25 -3.0625 C-16.3924069 -7.18059202 -9.36693293 -4.2487918 0 0 Z M-53 58 C-63.25784767 70.44797637 -69.68839579 87.93181752 -75 103 C-74.22140625 102.84273437 -73.4428125 102.68546875 -72.640625 102.5234375 C-71.01477149 102.20115293 -69.38493624 101.89748937 -67.75 101.625 C-67.1725 101.41875 -66.595 101.2125 -66 101 C-65.67 100.01 -65.34 99.02 -65 98 C-62.4375 96 -62.4375 96 -59 95 C-56.91430664 95.99609375 -56.91430664 95.99609375 -54.78515625 97.4375 C-54.07367432 97.91058594 -53.36219238 98.38367188 -52.62915039 98.87109375 C-52.09153076 99.24363281 -51.55391113 99.61617187 -51 100 C-40.16675116 78.17564424 -40.16675116 78.17564424 -38 55 C-39.24348469 52.61694804 -39.24348469 52.61694804 -41 51 C-46.15871142 51 -49.38321551 54.56557439 -53 58 Z M-77 107 C-78.98 112.94 -80.96 118.88 -83 125 C-81.35 124.67 -79.7 124.34 -78 124 C-75.47346685 117.83354621 -74.68718478 113.56407612 -76 107 C-76.33 107 -76.66 107 -77 107 Z " fill="#EA008B" transform="translate(249,29)"/>
<path d="M0 0 C0.71671875 0.31195313 1.4334375 0.62390625 2.171875 0.9453125 C9.03852684 4.90684241 13.6819927 13.59517458 18 20 C16 22 16 22 13.375 22.125 C12.59125 22.08375 11.8075 22.0425 11 22 C11.33 24.64 11.66 27.28 12 30 C9.03 29.67 6.06 29.34 3 29 C2.67 31.31 2.34 33.62 2 36 C0.5410574 35.52269162 -0.91713496 35.04308958 -2.375 34.5625 C-3.18710938 34.29566406 -3.99921875 34.02882812 -4.8359375 33.75390625 C-7 33 -7 33 -9 32 C-7.35 35.96 -5.7 39.92 -4 44 C-6.6296875 44.0928125 -6.6296875 44.0928125 -9.3125 44.1875 C-13.92214828 44.45691077 -13.92214828 44.45691077 -17.1875 47.5625 C-17.455625 48.366875 -17.72375 49.17125 -18 50 C-21.29783715 48.90072095 -21.83371996 48.21616406 -23.875 45.5625 C-26.39109901 42.56655815 -28.02190691 40.74011034 -32 40 C-39.75282919 39.7763607 -45.08699618 42.43872686 -50.73828125 47.58203125 C-70.22237767 68.1411123 -85.77578799 105.68678471 -86.5 133.75 C-86.28378053 139.26032031 -85.15286575 143.94690059 -83 149 C-82.67 149.99 -82.34 150.98 -82 152 C-78.14459881 153.88068351 -74.54791687 154.46461141 -70.28125 153.81640625 C-66.19054223 152.3524372 -62.98199529 149.59635225 -59.61328125 146.91015625 C-57.11758919 145.08595084 -54.90859807 144.00097699 -52 143 C-52 143.66 -52 144.32 -52 145 C-50.88625 145.185625 -50.88625 145.185625 -49.75 145.375 C-47 146 -47 146 -45 147.125 C-42.35022223 148.28427778 -40.73062678 147.75850744 -38 147 C-38 147.66 -38 148.32 -38 149 C-36.35 149.33 -34.7 149.66 -33 150 C-32.87882812 150.67546875 -32.75765625 151.3509375 -32.6328125 152.046875 C-32.46523437 152.93890625 -32.29765625 153.8309375 -32.125 154.75 C-31.96257812 155.63171875 -31.80015625 156.5134375 -31.6328125 157.421875 C-31.00610313 159.97513539 -30.53296596 161.85963243 -29 164 C-26.44480079 164.81171228 -26.44480079 164.81171228 -24 165 C-23.45178263 171.51769543 -23.43569033 177.04286976 -27.0078125 182.68359375 C-31.57288389 187.99160813 -37.28947369 192.00836625 -43 196 C-43.55816406 196.3913916 -44.11632812 196.7827832 -44.69140625 197.18603516 C-62.78188924 209.62596668 -82.97801889 213.03858984 -104.359375 209.43359375 C-113.90309364 207.31411309 -121.8380625 203.51613291 -128.29736328 196.02346802 C-131.90953067 189.60913873 -131.13924376 181.97585007 -131.0625 174.80859375 C-131.06790453 173.01806296 -131.07568151 171.22753793 -131.08569336 169.43702698 C-131.09746148 165.6834425 -131.08046619 161.93138456 -131.04296875 158.17797852 C-130.99787045 153.44003929 -131.02407621 148.70574083 -131.07049847 143.96793365 C-131.2426299 123.28313009 -130.73 105.12401711 -122 86 C-121.46079758 84.71242013 -120.92569383 83.42311086 -120.39599609 82.1315918 C-119.08721152 79.07001105 -117.68191407 76.09951384 -116.1875 73.125 C-115.68105957 72.09528076 -115.17461914 71.06556152 -114.65283203 70.00463867 C-98.34943649 37.40038153 -77.47492151 9.12739195 -41.78515625 -2.8359375 C-27.66377677 -7.17873532 -13.36776222 -6.18704282 0 0 Z " fill="#00ACEC" transform="translate(130,38)"/>
<path d="M0 0 C0.99 0.495 0.99 0.495 2 1 C1.23429687 1.66128906 1.23429687 1.66128906 0.453125 2.3359375 C-7.60955411 9.79820434 -13.19561044 18.74846205 -19 28 C-19.4345752 28.68594238 -19.86915039 29.37188477 -20.31689453 30.07861328 C-36.99751152 56.61506962 -48.07071263 85.266623 -54 116 C-54.18546387 116.92296875 -54.37092773 117.8459375 -54.56201172 118.796875 C-56.0380161 126.71805465 -56.36655663 134.45346754 -56.375 142.5 C-56.39949219 143.72847656 -56.42398438 144.95695313 -56.44921875 146.22265625 C-56.48216986 156.58028745 -54.80228009 166.79725048 -48 175 C-38.37879718 184.62120282 -25.90046556 185.35740034 -13.00610352 185.38061523 C1.96253321 185.1474808 13.00646065 179.48233369 25 171 C28.89812803 175.6796834 32.30894304 180.66960705 35.75 185.6875 C36.35199219 186.55439453 36.95398438 187.42128906 37.57421875 188.31445312 C38.42693359 189.55678711 38.42693359 189.55678711 39.296875 190.82421875 C39.81604492 191.57791748 40.33521484 192.33161621 40.87011719 193.1081543 C42 195 42 195 42 197 C42.66 197 43.32 197 44 197 C44 195.02 44 193.04 44 191 C45.65 191.33 47.3 191.66 49 192 C49.33 190.35 49.66 188.7 50 187 C54.05946658 188.7861653 57.43532094 191.39504223 61 194 C61 188.72 61 183.44 61 178 C62.65 178.66 64.3 179.32 66 180 C68.38162803 180.1893186 70.66813626 180.12930937 73.0534668 180.05810547 C73.69582275 180.03893066 74.33817871 180.01975586 75 180 C71.85213872 174.1853218 68.6701511 168.39207993 65.421875 162.6328125 C64.81859375 161.56289062 64.2153125 160.49296875 63.59375 159.390625 C62.35077199 157.1890792 61.10593964 154.98857945 59.859375 152.7890625 C59.26125 151.726875 58.663125 150.6646875 58.046875 149.5703125 C57.50901367 148.61914551 56.97115234 147.66797852 56.41699219 146.68798828 C53.75688202 141.64184545 53.75688202 141.64184545 53 139 C53.65576172 136.95800781 53.65576172 136.95800781 54.9296875 134.953125 C55.39117187 134.2007959 55.85265625 133.4484668 56.328125 132.67333984 C56.83859375 131.8736377 57.3490625 131.07393555 57.875 130.25 C58.91863809 128.52098275 59.95764515 126.78916241 60.9921875 125.0546875 C61.5087793 124.19327148 62.02537109 123.33185547 62.55761719 122.44433594 C77.17237614 97.67741538 85.20232316 67.28881726 89 39 C89.33 39 89.66 39 90 39 C91.21576684 81.83240082 91.21576684 81.83240082 84.88525391 96.85644531 C83.93928055 99.14702613 83.12456559 101.45944151 82.32421875 103.8046875 C79.60645022 111.69132927 76.52054466 119.37478558 73 126.9375 C72.67386719 127.64052246 72.34773437 128.34354492 72.01171875 129.06787109 C70.45207398 132.32663479 68.8280442 135.36189405 66.7265625 138.3046875 C64.70479986 141.1982883 63.11097013 143.64833906 62 147 C62.6974633 150.91826945 64.53145237 153.8297053 66.734375 157.10791016 C68.80058642 160.19686434 70.74115722 163.3614758 72.68041992 166.53125 C73.74840089 168.26941498 74.83647961 169.99542912 75.9465332 171.70703125 C79.71090348 177.7157173 81.75389225 183.0309877 80.66918945 190.18041992 C80 192 80 192 77.375 193.25 C73.80965491 194.04229891 70.64075312 194.14563012 67 194 C67.01160156 194.69867188 67.02320313 195.39734375 67.03515625 196.1171875 C67.04417969 197.02726563 67.05320313 197.93734375 67.0625 198.875 C67.07990234 200.23238281 67.07990234 200.23238281 67.09765625 201.6171875 C67 204 67 204 66 206 C61.85038479 206.72800267 58.01394904 207.03475091 53.8125 206.875 C50.0480325 206.67915017 50.0480325 206.67915017 47.5 208.5625 C44.55751226 210.25443045 42.47502086 210.36333408 39.13476562 209.87133789 C34.61980608 208.02848672 32.46125829 203.43345897 30 199.4375 C29.41605469 198.53580078 28.83210937 197.63410156 28.23046875 196.70507812 C26.79659345 194.48374671 25.38831876 192.24997906 24 190 C18.91410155 191.62990217 14.08436537 193.64310421 9.1953125 195.78125 C-8.16335932 202.4021615 -29.06971411 201.31429269 -46 194 C-53.59636468 190.15914145 -58.0560085 183.20911575 -60.8125 175.3125 C-69.43698171 147.55734978 -61.26024502 112.47527932 -52 86 C-51.69690918 85.13294434 -51.39381836 84.26588867 -51.08154297 83.37255859 C-46.85619263 71.47412671 -41.90845874 60.15387349 -36 49 C-35.505 48.01 -35.505 48.01 -35 47 C-36.65 47 -38.3 47 -40 47 C-39.95875 48.11375 -39.9175 49.2275 -39.875 50.375 C-40 54 -40 54 -42 56 C-44.05859375 56.2734375 -44.05859375 56.2734375 -46.4375 56.375 C-48.85289771 56.53647662 -48.85289771 56.53647662 -51 57 C-51.495 57.66 -51.99 58.32 -52.5 59 C-54.39427274 61.52569699 -55.31347097 61.4908179 -58.375 61.9375 C-62.50157935 62.21171354 -64.77395845 61.76517847 -68 59 C-68.639375 58.13375 -69.27875 57.2675 -69.9375 56.375 C-71.84155271 53.84215147 -71.84155271 53.84215147 -74.6875 52.8125 C-80.02281651 53.11449905 -83.11738138 55.4315091 -87 59 C-104.68958273 79.38023124 -121.40046749 114.02298147 -121.234375 141.38671875 C-120.86484966 145.50692631 -119.54768929 149.18605139 -118 153 C-120.83132321 152.37081707 -122.54748795 151.67579102 -124.1875 149.2265625 C-131.55163786 134.66073099 -127.5760811 118.87427179 -123 104 C-118.78309176 91.54294412 -113.27774713 79.54609628 -107 68 C-106.64824707 67.35160156 -106.29649414 66.70320313 -105.93408203 66.03515625 C-92.91977699 42.40468777 -92.91977699 42.40468777 -80.375 38.46484375 C-76.57416933 37.72093117 -73.62345423 37.48236086 -70 39 C-67.05877583 41.08270468 -64.52489969 43.43591118 -62 46 C-61.42894531 46.56976563 -60.85789062 47.13953125 -60.26953125 47.7265625 C-59.85058594 48.14679688 -59.43164062 48.56703125 -59 49 C-58.5359375 47.7934375 -58.5359375 47.7934375 -58.0625 46.5625 C-57 44 -57 44 -56 43 C-54.31816052 42.76712992 -52.6287584 42.58735834 -50.9375 42.4375 C-50.01839844 42.35371094 -49.09929687 42.26992187 -48.15234375 42.18359375 C-47.44207031 42.12300781 -46.73179688 42.06242187 -46 42 C-46.28875 41.37351563 -46.5775 40.74703125 -46.875 40.1015625 C-47.24625 39.28429687 -47.6175 38.46703125 -48 37.625 C-48.37125 36.81289062 -48.7425 36.00078125 -49.125 35.1640625 C-50 33 -50 33 -50 31 C-48.5410574 31.47730838 -47.08286504 31.95691042 -45.625 32.4375 C-44.81289062 32.70433594 -44.00078125 32.97117188 -43.1640625 33.24609375 C-41 34 -41 34 -39 35 C-38.67 32.69 -38.34 30.38 -38 28 C-35.03 28.33 -32.06 28.66 -29 29 C-29.495 25.04 -29.495 25.04 -30 21 C-28.02 20.34 -26.04 19.68 -24 19 C-28.05230726 13.04142986 -32.2036661 7.38125267 -37 2 C-29.80082672 5.29562154 -24.665397 10.97576635 -20.2265625 17.3984375 C-19.07412229 19.14551584 -19.07412229 19.14551584 -17 20 C-16.63648438 18.9171875 -16.63648438 18.9171875 -16.265625 17.8125 C-13.02628632 10.61396959 -6.1878493 4.75988408 0 0 Z " fill="#010001" transform="translate(171,39)"/>
<path d="M0 0 C4.53435026 3.32519019 5.96604744 6.54825013 7 12 C7.48068169 24.84321394 2.11607382 36.68726874 -2.5 48.4375 C-2.97477783 49.64623779 -3.44955566 50.85497559 -3.9387207 52.1003418 C-6.37996141 58.2176541 -8.93615191 64.16857215 -12 70 C-15.33557632 67.0094833 -17.15083921 64.06815373 -19 60 C-18.38125 60.165 -17.7625 60.33 -17.125 60.5 C-15.03936614 61.07634644 -15.03936614 61.07634644 -13 61 C-11.38663797 56.89939036 -9.78604185 52.79390724 -8.1875 48.6875 C-7.73568359 47.53958984 -7.28386719 46.39167969 -6.81835938 45.20898438 C-0.90694492 31.93565918 -0.90694492 31.93565918 -1 18 C-1.66 17.01 -2.32 16.02 -3 15 C-7.82489412 15.42572595 -10.80535006 17.52208061 -14 21 C-23.8792142 33.70184683 -30.14832722 50.12443183 -36 65 C-34.68 65 -33.36 65 -32 65 C-30.02 68.96 -28.04 72.92 -26 77 C-27.98 76.67 -29.96 76.34 -32 76 C-32 77.98 -32 79.96 -32 82 C-32.99 82 -33.98 82 -35 82 C-34.34 84.97 -33.68 87.94 -33 91 C-37.75 89.125 -37.75 89.125 -40 88 C-39.84402344 87.33613281 -39.68804687 86.67226562 -39.52734375 85.98828125 C-39.23537109 84.66376953 -39.23537109 84.66376953 -38.9375 83.3125 C-38.74027344 82.44238281 -38.54304687 81.57226562 -38.33984375 80.67578125 C-37.97967721 77.83998724 -38.29090031 75.75210018 -39 73 C-44.00665971 84.74900121 -44.00665971 84.74900121 -44 97 C-42.07583802 100.55615186 -40.02593869 103.83690256 -37.75 107.1796875 C-36 110 -36 110 -36 113 C-39.71710563 114.85855282 -43.95277281 114.57908439 -48 114 C-51.34625024 111.47323961 -52.67977847 109.96066458 -54 106 C-55.80212112 83.16158044 -46.33625008 62.12382693 -37.5625 41.625 C-37.2978595 41.00123474 -37.03321899 40.37746948 -36.76055908 39.73480225 C-22.53444954 6.34914922 -22.53444954 6.34914922 -8.9453125 0.59375 C-5.71233925 -0.39302095 -3.33361963 -0.56608635 0 0 Z " fill="#020001" transform="translate(211,66)"/>
<path d="M0 0 C2.75 -0.5625 2.75 -0.5625 5 0 C6.68319923 1.68319923 6.29162301 3.69109874 6.375 6 C6.24677344 12.21898838 5.08089723 16.25495676 1 21 C-3.32602339 25.10143193 -8.12203141 28.59032058 -13 32 C-13.55816406 32.3913916 -14.11632812 32.7827832 -14.69140625 33.18603516 C-32.78188924 45.62596668 -52.97801889 49.03858984 -74.359375 45.43359375 C-84.11129962 43.26787445 -91.72385175 39.41683587 -98.33300781 31.81738281 C-101.54494705 26.38888563 -100.82544092 20.55516339 -100.5 14.4375 C-100.46390625 13.14263672 -100.4278125 11.84777344 -100.390625 10.51367188 C-100.2969174 7.3393269 -100.16585068 4.17125637 -100 1 C-99.67 1 -99.34 1 -99 1 C-98.78085938 1.83402344 -98.56171875 2.66804687 -98.3359375 3.52734375 C-95.40665132 13.9227374 -92.02282591 22.10572808 -82.4375 27.78125 C-70.17575469 33.91212265 -53.26567878 34.14333497 -40.125 30.5625 C-26.39724136 25.4369922 -9.48514861 16.42889044 -2 3.3125 C-1.34 2.219375 -0.68 1.12625 0 0 Z " fill="#000001" transform="translate(100,202)"/>
<path d="M0 0 C0.99 0.495 0.99 0.495 2 1 C1.14277344 1.70125 0.28554688 2.4025 -0.59765625 3.125 C-11.01916449 11.73261401 -18.77523853 20.5069992 -26 32 C-26.45036621 32.7120459 -26.90073242 33.4240918 -27.36474609 34.15771484 C-45.62743747 63.22282788 -57.4996071 93.84438653 -62 128 C-62.33 128 -62.66 128 -63 128 C-65.53019074 86.19346375 -44.46778549 46.16439682 -17.6875 14.75 C-12.42576263 9.05293903 -6.25217268 4.54176377 0 0 Z " fill="#000102" transform="translate(63,47)"/>
<path d="M0 0 C3.81684226 1.55500981 6.19195732 4.03595495 9 7 C6.36 7.33 3.72 7.66 1 8 C1.66 9.98 2.32 11.96 3 14 C-3.27 13.67 -9.54 13.34 -16 13 C-14.35 11.02 -12.7 9.04 -11 7 C-8.5625 7.375 -8.5625 7.375 -6 8 C-5.67 8.66 -5.34 9.32 -5 10 C-4.72285156 9.36191406 -4.44570312 8.72382812 -4.16015625 8.06640625 C-3.79792969 7.24011719 -3.43570313 6.41382813 -3.0625 5.5625 C-2.70285156 4.73878906 -2.34320313 3.91507813 -1.97265625 3.06640625 C-1 1 -1 1 0 0 Z " fill="#050002" transform="translate(219,28)"/>
<path d="M0 0 C1.65 0.33 3.3 0.66 5 1 C5.13277344 1.69867188 5.26554687 2.39734375 5.40234375 3.1171875 C5.57894531 4.02726563 5.75554687 4.93734375 5.9375 5.875 C6.11152344 6.77992188 6.28554687 7.68484375 6.46484375 8.6171875 C6.89963701 10.99956317 6.89963701 10.99956317 8 13 C5.69 13.66 3.38 14.32 1 15 C1 13.02 1 11.04 1 9 C0.01 9 -0.98 9 -2 9 C-1.34 6.03 -0.68 3.06 0 0 Z " fill="#000203" transform="translate(92,187)"/>
<path d="M0 0 C4.16744073 1.97500452 7.63593073 3.92082165 10 8 C10.50627348 12.05018786 10.35467103 15.94098711 10 20 C9.67 20 9.34 20 9 20 C8.85304688 19.39414062 8.70609375 18.78828125 8.5546875 18.1640625 C6.73228635 11.35624211 3.86150474 5.87348617 0 0 Z " fill="#010000" transform="translate(251,31)"/>
<path d="M0 0 C2.475 0.99 2.475 0.99 5 2 C2.6875 4.5 2.6875 4.5 0 7 C-0.99 7 -1.98 7 -3 7 C-2.01 4.69 -1.02 2.38 0 0 Z " fill="#000507" transform="translate(83,185)"/>
<path d="M0 0 C1.65 0.33 3.3 0.66 5 1 C5.33 2.32 5.66 3.64 6 5 C3.69 4.67 1.38 4.34 -1 4 C-0.67 2.68 -0.34 1.36 0 0 Z " fill="#000000" transform="translate(200,28)"/>
<path d="M0 0 C1 3 1 3 0 6 C-1.32 6 -2.64 6 -4 6 C-3.67 4.35 -3.34 2.7 -3 1 C-2.01 0.67 -1.02 0.34 0 0 Z " fill="#000000" transform="translate(187,125)"/>
</svg>
